<svg width="120" height="45" viewBox="0 0 120 45" fill="none" xmlns="http://www.w3.org/2000/svg">
<path d="M3.8728 43.2576V13.5545H11.5842L25.8269 31.7152V13.5545H33.499V43.2576H25.8269L11.5842 25.097V43.2576H3.8728Z" fill="black"/>
<path d="M47.2926 28.4061C47.2926 29.5879 47.5155 30.6778 47.9615 31.6758C48.4074 32.6737 49.0106 33.5404 49.7713 34.2758C50.532 35.0111 51.4106 35.5889 52.4074 36.0091C53.4303 36.403 54.5057 36.6 55.6336 36.6C56.7614 36.6 57.8237 36.403 58.8205 36.0091C59.8435 35.5889 60.7352 35.0111 61.4959 34.2758C62.2828 33.5404 62.8991 32.6737 63.3451 31.6758C63.791 30.6778 64.014 29.5879 64.014 28.4061C64.014 27.2242 63.791 26.1343 63.3451 25.1364C62.8991 24.1384 62.2828 23.2717 61.4959 22.5364C60.7352 21.801 59.8435 21.2364 58.8205 20.8424C57.8237 20.4222 56.7614 20.2121 55.6336 20.2121C54.5057 20.2121 53.4303 20.4222 52.4074 20.8424C51.4106 21.2364 50.532 21.801 49.7713 22.5364C49.0106 23.2717 48.4074 24.1384 47.9615 25.1364C47.5155 26.1343 47.2926 27.2242 47.2926 28.4061ZM39.2271 28.4061C39.2271 26.2 39.6336 24.1515 40.4467 22.2606C41.2598 20.3434 42.3877 18.6758 43.8303 17.2576C45.2729 15.8394 46.991 14.7364 48.9844 13.9485C51.0041 13.1343 53.2205 12.7273 55.6336 12.7273C58.0205 12.7273 60.2237 13.1343 62.2435 13.9485C64.2631 14.7364 65.9943 15.8394 67.4369 17.2576C68.9057 18.6758 70.0467 20.3434 70.8599 22.2606C71.6729 24.1515 72.0795 26.2 72.0795 28.4061C72.0795 30.6121 71.6729 32.6737 70.8599 34.5909C70.0467 36.4818 68.9057 38.1364 67.4369 39.5545C65.9943 40.9727 64.2631 42.0889 62.2435 42.903C60.2237 43.6909 58.0205 44.0848 55.6336 44.0848C53.2205 44.0848 51.0041 43.6909 48.9844 42.903C46.991 42.0889 45.2729 40.9727 43.8303 39.5545C42.3877 38.1364 41.2598 36.4818 40.4467 34.5909C39.6336 32.6737 39.2271 30.6121 39.2271 28.4061Z" fill="black"/>
<path d="M82.1697 13.5545L87.2845 32.7394L93.5796 13.5545H99.7173L106.012 32.7394L111.127 13.5545H119.193L110.34 43.2576H102.471L96.6484 26.0424L90.8255 43.2576H82.9566L74.1045 13.5545H82.1697Z" fill="#DA3490"/>
<path d="M38.8752 0.038517L40.4489 5.94154L42.3859 0.038517H44.2744L46.2114 5.94154L47.7851 0.038517H50.2668L47.543 9.17788H45.1218L43.3301 3.88094L41.5385 9.17788H39.1173L36.3934 0.038517H38.8752Z" fill="#DA3490"/>
<path d="M56.4225 2.05064H53.6019V3.57791H56.2652V5.59003H53.6019V7.16579H56.4225V9.17788H51.2291V0.038517H56.4225V2.05064ZM60.506 7.33548H61.0266C61.6238 7.33548 62.0515 7.25872 62.3098 7.10518C62.568 6.95165 62.6972 6.70518 62.6972 6.36579C62.6972 6.02639 62.568 5.77993 62.3098 5.62639C62.0515 5.47286 61.6238 5.39609 61.0266 5.39609H60.506V7.33548ZM60.506 3.62639H60.9418C61.6843 3.62639 62.0556 3.33145 62.0556 2.74154C62.0556 2.15165 61.6843 1.8567 60.9418 1.8567H60.506V3.62639ZM58.1333 0.038517H61.6682C62.5075 0.038517 63.1451 0.240537 63.5809 0.644577C64.0167 1.04862 64.2346 1.63044 64.2346 2.39003C64.2346 2.85064 64.1499 3.23448 63.9804 3.54154C63.819 3.84054 63.5688 4.09508 63.2299 4.30518C63.5688 4.36983 63.8553 4.47084 64.0894 4.60821C64.3315 4.73751 64.5252 4.89912 64.6705 5.09306C64.8237 5.287 64.9327 5.50518 64.9973 5.7476C65.0619 5.99003 65.0942 6.24862 65.0942 6.52336C65.0942 6.95165 65.0174 7.33144 64.8642 7.66272C64.7189 7.99409 64.509 8.27288 64.2346 8.49909C63.9683 8.72538 63.6415 8.89507 63.2541 9.00818C62.8667 9.12136 62.4309 9.17788 61.9466 9.17788H58.1333V0.038517ZM71.3485 5.78397L70.2832 2.74154L69.2179 5.78397H71.3485ZM71.978 7.59H68.5884L68.0436 9.17788H65.5135L68.9879 0.038517H71.5786L75.053 9.17788H72.5228L71.978 7.59ZM78.4638 4.12336H78.9117C79.3801 4.12336 79.7387 4.02639 79.9891 3.83245C80.2396 3.63851 80.3644 3.35973 80.3644 2.99609C80.3644 2.63245 80.2396 2.35367 79.9891 2.15973C79.7387 1.96579 79.3801 1.86882 78.9117 1.86882H78.4638V4.12336ZM83.6814 9.17788H80.7276L78.4638 5.66276V9.17788H76.091V0.038517H79.7833C80.2918 0.038517 80.7359 0.115285 81.115 0.26882C81.4941 0.414275 81.805 0.616294 82.0472 0.874878C82.2976 1.13347 82.483 1.43245 82.604 1.77185C82.7334 2.11124 82.7977 2.47488 82.7977 2.86276C82.7977 3.55771 82.6282 4.12336 82.2893 4.55973C81.9586 4.98801 81.4661 5.27892 80.8123 5.43245L83.6814 9.17788Z" fill="black"/>
</svg>
